<?xml version="1.0" encoding="UTF-8"?>
<!DOCTYPE svg PUBLIC "-//W3C//DTD SVG 1.1//EN" "http://www.w3.org/Graphics/SVG/1.1/DTD/svg11.dtd">
<!-- Creator: CorelDRAW -->
<svg xmlns="http://www.w3.org/2000/svg" xml:space="preserve" width="13.0897mm" height="14.5604mm" version="1.1" style="shape-rendering:geometricPrecision; text-rendering:geometricPrecision; image-rendering:optimizeQuality; fill-rule:evenodd; clip-rule:evenodd"
viewBox="0 0 135.27 150.47"
 xmlns:xlink="http://www.w3.org/1999/xlink"
 xmlns:xodm="http://www.corel.com/coreldraw/odm/2003">
 <defs>
  <style type="text/css">
   <![CDATA[
    .str0 {stroke:black;stroke-width:13.69;stroke-linecap:round;stroke-linejoin:round;stroke-miterlimit:22.9256}
    .fil0 {fill:none}
   ]]>
  </style>
 </defs>
 <g id="Layer_x0020_1">
  <metadata id="CorelCorpID_0Corel-Layer"/>
  <path class="fil0 str0" d="M113.23 29.64l-6.09 91.29c-0.53,7.99 -0.8,11.99 -2.53,15.02 -1.52,2.67 -3.81,4.81 -6.58,6.15 -3.14,1.52 -7.15,1.52 -15.16,1.52l-30.49 0c-8.01,0 -12.02,0 -15.16,-1.52 -2.76,-1.34 -5.06,-3.48 -6.58,-6.15 -1.73,-3.03 -1.99,-7.03 -2.53,-15.02l-6.09 -91.29m-15.2 0l121.58 0m-30.4 0l-2.06 -6.17c-1.99,-5.98 -2.99,-8.97 -4.84,-11.18 -1.63,-1.95 -3.73,-3.46 -6.1,-4.39 -2.68,-1.06 -5.83,-1.06 -12.14,-1.06l-10.54 0c-6.3,0 -9.45,0 -12.14,1.06 -2.37,0.93 -4.46,2.44 -6.1,4.39 -1.85,2.21 -2.84,5.2 -4.84,11.18l-2.06 6.17m45.59 30.4l0 53.19m-30.4 -53.19l0 53.19"/>
 </g>
</svg>
