<?xml version="1.0" encoding="UTF-8"?>
<!DOCTYPE svg PUBLIC "-//W3C//DTD SVG 1.0//EN" "http://www.w3.org/TR/2001/REC-SVG-20010904/DTD/svg10.dtd">
<!-- Creator: CorelDRAW -->
<svg xmlns="http://www.w3.org/2000/svg" xml:space="preserve" width="55px" height="55px" version="1.0" style="shape-rendering:geometricPrecision; text-rendering:geometricPrecision; image-rendering:optimizeQuality; fill-rule:evenodd; clip-rule:evenodd"
viewBox="0 0 1.635 1.635"
 xmlns:xlink="http://www.w3.org/1999/xlink"
 xmlns:xodm="http://www.corel.com/coreldraw/odm/2003">
 <defs>
  <style type="text/css">
   <![CDATA[
    .str0 {stroke:black;stroke-width:0.149;stroke-linecap:round;stroke-linejoin:round;stroke-miterlimit:22.9256}
    .fil0 {fill:none}
   ]]>
  </style>
 </defs>
 <g id="Layer_x0020_1">
  <metadata id="CorelCorpID_0Corel-Layer"/>
  <path class="fil0 str0" d="M0.52 0.52l0 -0.208c0,-0.083 0,-0.125 0.017,-0.156 0.014,-0.028 0.037,-0.051 0.065,-0.065 0.031,-0.017 0.073,-0.017 0.156,-0.017l0.565 0c0.083,0 0.125,0 0.157,0.017 0.028,0.014 0.051,0.037 0.065,0.065 0.016,0.031 0.016,0.073 0.016,0.156l0 0.565c0,0.083 0,0.125 -0.016,0.157 -0.014,0.028 -0.037,0.051 -0.065,0.065 -0.032,0.016 -0.074,0.016 -0.157,0.016l-0.208 0m-0.803 0.446l0.565 0c0.083,0 0.125,0 0.157,-0.016 0.028,-0.014 0.051,-0.037 0.065,-0.065 0.016,-0.032 0.016,-0.074 0.016,-0.157l0 -0.565c0,-0.083 0,-0.125 -0.016,-0.156 -0.014,-0.028 -0.037,-0.051 -0.065,-0.065 -0.032,-0.017 -0.074,-0.017 -0.157,-0.017l-0.565 0c-0.083,0 -0.125,0 -0.156,0.017 -0.028,0.014 -0.051,0.037 -0.065,0.065 -0.017,0.031 -0.017,0.073 -0.017,0.156l0 0.565c0,0.083 0,0.125 0.017,0.157 0.014,0.028 0.037,0.051 0.065,0.065 0.031,0.016 0.073,0.016 0.156,0.016z"/>
 </g>
</svg>
