<?xml version="1.0" encoding="UTF-8"?>
<!DOCTYPE svg PUBLIC "-//W3C//DTD SVG 1.1//EN" "http://www.w3.org/Graphics/SVG/1.1/DTD/svg11.dtd">
<!-- Creator: CorelDRAW -->
<svg xmlns="http://www.w3.org/2000/svg" xml:space="preserve" width="27.5246mm" height="27.5333mm" version="1.1" style="shape-rendering:geometricPrecision; text-rendering:geometricPrecision; image-rendering:optimizeQuality; fill-rule:evenodd; clip-rule:evenodd"
viewBox="0 0 163.61 163.66"
 xmlns:xlink="http://www.w3.org/1999/xlink"
 xmlns:xodm="http://www.corel.com/coreldraw/odm/2003">
 <defs>
  <style type="text/css">
   <![CDATA[
    .str0 {stroke:white;stroke-width:3.15;stroke-miterlimit:22.9256}
    .fil0 {fill:#00A4E9}
    .fil1 {fill:white;fill-rule:nonzero}
   ]]>
  </style>
 </defs>
 <g id="Layer_x0020_1">
  <metadata id="CorelCorpID_0Corel-Layer"/>
  <path class="fil0" d="M16.34 0l130.93 0c8.97,0 16.34,7.27 16.34,16.34l0 130.93c0,8.97 -7.37,16.39 -16.34,16.39l-130.93 0c-9.07,0 -16.34,-7.42 -16.34,-16.39l0 -130.93c0,-9.07 7.27,-16.34 16.34,-16.34z"/>
  <path class="fil1 str0" d="M34.9 85.05l0 -7.99c1.6,0 2.83,-0.41 3.71,-1.24 0.88,-0.88 1.29,-2.01 1.24,-3.56l0 -18.09c0,-4.43 1.29,-7.83 3.87,-10.31 2.58,-2.42 6.19,-3.61 10.83,-3.61l0.05 9.33c-1.65,0 -2.94,0.46 -3.81,1.34 -0.88,0.88 -1.34,2.17 -1.34,3.76l0 18.61c0,3.92 -1.24,6.85 -3.76,8.81 -2.48,1.96 -6.08,2.94 -10.77,2.94zm19.69 38.35c-4.69,0 -8.3,-1.24 -10.83,-3.66 -2.58,-2.42 -3.87,-5.88 -3.92,-10.26l0 -18.09c0.05,-1.55 -0.36,-2.73 -1.24,-3.56 -0.88,-0.83 -2.11,-1.29 -3.71,-1.29l0 -7.94c4.69,0 8.3,1.03 10.77,3.04 2.53,2.01 3.76,5.1 3.76,9.23l0 18.04c0,1.6 0.46,2.89 1.39,3.76 0.88,0.93 2.11,1.39 3.71,1.39l0.05 9.33z"/>
  <path id="_1" class="fil1 str0" d="M128.71 85.16c-4.64,0.05 -8.2,-0.93 -10.72,-2.94 -2.53,-1.96 -3.76,-4.95 -3.81,-8.92l0 -18.61c0.05,-1.6 -0.41,-2.89 -1.29,-3.76 -0.93,-0.88 -2.17,-1.34 -3.81,-1.34l0 -9.33c4.69,0 8.3,1.19 10.88,3.61 2.53,2.47 3.81,5.88 3.81,10.31l0 17.94c0,1.5 0.46,2.68 1.29,3.51 0.88,0.88 2.11,1.29 3.66,1.34l0 8.2zm-19.64 38.25l0 -9.33c1.65,0 2.89,-0.46 3.76,-1.39 0.93,-0.88 1.34,-2.17 1.34,-3.76l0 -18.04c0.05,-4.18 1.29,-7.27 3.81,-9.33 2.53,-2.06 6.08,-3.09 10.72,-3.04l0 8.25c-1.55,0 -2.78,0.41 -3.66,1.29 -0.83,0.77 -1.29,1.96 -1.29,3.5l0 17.94c0,4.38 -1.29,7.83 -3.81,10.26 -2.58,2.42 -6.19,3.66 -10.88,3.66l-0 0z"/>
  <path id="_2" class="fil1 str0" d="M76.65 121.86l0 -24.43 10.36 0 0 14.28 -10.36 10.15zm0 -46.13l0 -10.31 10.36 0 0 10.31 -10.36 0z"/>
 </g>
</svg>
